<svg xmlns="http://www.w3.org/2000/svg" width="56" height="56" viewBox="0 0 56 56" fill="none">
<g clip-path="url(#clip0_2057_170)">
<rect width="56" height="56" rx="28" fill="#373737"/>
<path d="M15.6303 17.8145C15.6303 26.054 15.6303 34.2005 15.6303 42.3469C15.5681 42.3676 15.5164 42.3883 15.4542 42.409C15.3301 42.264 15.2058 42.1295 15.0817 41.9846C14.3156 41.0219 13.5496 40.0799 12.8147 39.0967C12.6491 38.8689 12.5249 38.548 12.5249 38.2685C12.5249 32.0888 12.5353 25.9195 12.556 19.7399C12.5663 16.3447 12.5974 12.9495 12.618 9.54393C12.618 9.40936 12.618 9.28514 12.618 8.99532C13.1667 9.63709 13.6221 10.1547 14.0672 10.6929C16.7999 13.9121 19.5326 17.1313 22.2757 20.3403C22.5655 20.6818 22.6794 21.0131 22.6794 21.4478C22.6897 28.7454 22.7208 36.043 22.7415 43.3406C22.7415 43.4649 22.7415 43.5787 22.7415 43.734C27.2753 43.734 31.7885 43.734 36.3844 43.734C35.5667 42.7506 34.7799 41.8293 34.014 40.877C33.7552 40.5561 33.4964 40.4112 33.072 40.4112C30.8362 40.4112 28.6003 40.3801 26.354 40.3594C26.1678 40.3594 25.9814 40.3594 25.7123 40.3594C25.7123 39.2001 25.7123 38.0719 25.7123 36.8504C26.3023 36.8504 26.9544 36.8504 27.6065 36.8504C29.8424 36.8401 32.0783 36.809 34.3245 36.8194C34.5522 36.8194 34.8524 36.9642 35.0076 37.1402C37.7922 40.3594 40.5663 43.589 43.3404 46.8186C43.3922 46.8808 43.4335 46.9531 43.4853 47.0153C35.4217 47.0153 27.3892 47.0153 19.2946 47.0153C19.2946 45.5765 19.2842 44.1997 19.2946 42.8334C19.3049 41.2083 19.3256 39.5935 19.336 37.9683C19.3567 33.9521 19.3774 29.9358 19.3981 25.9092C19.4085 24.7706 19.4292 23.6319 19.4188 22.4933C19.4188 22.3069 19.3774 22.0689 19.2531 21.924C18.1353 20.5887 16.9966 19.274 15.858 17.9594C15.8476 17.9284 15.7958 17.9181 15.6303 17.8145Z" fill="white"/>
<path d="M32.3268 21.9135C35.1631 21.8928 37.4507 24.1805 37.4507 27.0374C37.4507 29.8323 35.1941 32.1199 32.4097 32.1509C29.5527 32.1819 27.2236 29.8737 27.2236 27.0271C27.2236 24.2012 29.5009 21.9239 32.3268 21.9135Z" fill="white"/>
</g>
<rect x="0.5" y="0.5" width="55" height="55" rx="27.5" stroke="white" stroke-opacity="0.4"/>
<defs>
<clipPath id="clip0_2057_170">
<rect width="56" height="56" rx="28" fill="white"/>
</clipPath>
</defs>
</svg>
